inDegrees=yes
name=ik_Xsens_quaternion
DataType=double
version=3
OpenSimVersion=4.4-2022-07-23-0e9fedc
endheader
time	pelvis_tilt	pelvis_list	pelvis_rotation	pelvis_tx	pelvis_ty	pelvis_tz	hip_flexion_r	hip_adduction_r	hip_rotation_r	knee_angle_r	knee_angle_r_beta	ankle_angle_r	subtalar_angle_r	mtp_angle_r	hip_flexion_l	hip_adduction_l	hip_rotation_l	knee_angle_l	knee_angle_l_beta	ankle_angle_l	subtalar_angle_l	mtp_angle_l	lumbar_extension	lumbar_bending	lumbar_rotation	arm_flex_r	arm_add_r	arm_rot_r	elbow_flex_r	pro_sup_r	wrist_flex_r	wrist_dev_r	arm_flex_l	arm_add_l	arm_rot_l	elbow_flex_l	pro_sup_l	wrist_flex_l	wrist_dev_l
17.38333333333333	5.020481982602433e-28	-1.720410828479502e-17	1.894715570318798e-28	1.011176801385613e-25	0.93	5.608807856659352e-26	0	-9.103725547058787e-24	0	0	-1.481558649022164e-15	-1.666775391344667e-24	8.712593416596736e-24	-1.47762420119674e-18	-5.384495042034352e-23	0	9.443151408736526e-23	0	-1.443961409805771e-15	5.428535371579386e-22	-9.271664617615734e-27	4.899152422083612e-19	2.174290242419508e-28	7.59876038740825e-28	9.567693639310975e-28	1.110777374474095e-07	4.43401581465233e-07	-6.033349980158322e-07	1.651415618614689e-10	-6.947623459199856e-10	-4.836085444743875e-19	-3.938940392321486e-19	-60.79678316759312	-58.92928211265991	-107.9743921384154	33.59391670812529	-59.10176669462229	4.06896460162389e-19	4.128931212130586e-19
17.4	0	0	0	0	0.93	0	0	0	0	0	-4.286675594453355e-41	0	0	0	0	0	0	0	7.930995425478001e-41	0	0	0	0	0	0	1.110777374474095e-07	4.43401581465233e-07	-6.033349980158322e-07	1.651415618614689e-10	-6.947623459199856e-10	0	0	-61.36164051388892	-58.43625331573731	-108.5936490510159	33.47866000797001	-59.05578868831276	0	0
17.41666666666667	0	0	0	0	0.93	0	0	0	0	2.335508686624349e-39	9.488648829245327e-41	0	0	0	0	0	0	2.335508686624349e-39	3.339220617578441e-41	0	0	0	0	0	0	1.110777374474095e-07	4.43401581465233e-07	-6.033349980158322e-07	1.651415618614689e-10	-6.947623459199856e-10	0	0	-61.83704493304672	-57.99025502380307	-109.1721757983981	33.35188608544368	-59.0303298516385	0	0
17.43333333333333	0	0	0	0	0.93	0	0	0	0	1.073795623116911e-38	0	0	0	0	0	0	0	1.04678280762793e-38	1.650979744645805e-41	0	0	0	0	0	0	1.110777374474092e-07	4.4340158146471e-07	-6.03334998025875e-07	1.651415696670961e-10	-6.947623605839167e-10	0	0	-62.23222868909145	-57.57916561447816	-109.7269731371309	33.23908638488452	-59.01272122762476	0	0
17.45	0	0	0	0	0.93	0	0	0	0	6.618922878304916e-39	0	0	0	0	0	0	0	6.618922878304916e-39	0	0	0	0	0	0	0	1.110777374474092e-07	4.4340158146471e-07	-6.03334998025875e-07	1.651415696670961e-10	-6.947623605839167e-10	0	0	-62.57820457614051	-57.20501622827816	-110.2082405896607	33.12422947626103	-58.99874686414255	0	0
17.46666666666667	0	0	0	0	0.93	0	0	0	0	1.052357267868557e-38	9.183549615799121e-41	0	0	0	0	0	0	1.052357267868557e-38	9.183549615799121e-41	0	0	0	0	0	0	1.110777374474092e-07	4.4340158146471e-07	-6.03334998025875e-07	1.651415696670961e-10	-6.947623605839167e-10	0	0	-62.91208404905421	-56.83925627279935	-110.6057784766647	33.04820803007483	-59.00601749270675	0	0
17.48333333333333	2.7918433213319e-25	-2.005344927089755e-26	2.970962775354771e-26	1.108381119353976e-27	0.93	-2.43473359904987e-27	-7.509347320232224e-19	8.373434923800111e-18	-4.268724032836765e-18	0	-2.963309257463993e-17	-4.557989124788152e-17	1.291426998560784e-19	7.367858226739571e-17	-1.160769865995904e-18	-2.945601685154533e-17	-1.389450288142472e-17	0	-2.854920815213493e-17	1.192335433758447e-17	-1.020651108261642e-18	3.584526385377077e-17	-9.731605988915141e-18	-2.926425671302104e-17	-1.222508699853102e-17	1.110777364776412e-07	4.434012431204842e-07	-6.033350448949739e-07	1.651415696667893e-10	-6.947623605836388e-10	6.091741015865368e-18	1.681408770747804e-18	-63.22069226220036	-56.49999744152898	-110.937986506133	32.98787454882937	-59.0902930646249	-1.278055423877206e-16	-3.152529086559579e-17
17.5	0	0	0	0	0.93	0	0	0	0	0	0	0	0	0	0	0	0	0	0	0	0	0	0	0	0	1.110777364803715e-07	4.434012431207222e-07	-6.033350448948673e-07	1.651415698086722e-10	-6.947623607288672e-10	0	0	-63.45554038653911	-56.20414804042138	-111.2606396259806	32.91889302722434	-59.17005019593141	0	0
17.51666666666667	-3.325867619442371e-29	-3.149352228844116e-23	1.250942425238959e-28	3.076152953340017e-23	0.93	-6.222143678001591e-22	1.322770991420061e-30	5.236823004806708e-19	0	0	-1.661439708877475e-17	-9.11874114054739e-23	-4.437459636530562e-22	-6.87147594490907e-21	-2.834028213838512e-19	5.177528898388776e-28	2.02860256580194e-21	0	-1.658712189882079e-17	1.435348137516883e-21	3.111260146869442e-25	-1.777088292139134e-20	-6.742478945316922e-29	-2.029319903966349e-26	5.862602501580188e-26	1.110777364803618e-07	4.434012431185943e-07	-6.033350448958993e-07	1.651415663750411e-10	-6.947623602940487e-10	1.947448928115294e-21	-9.919638717906028e-22	-63.64370807060029	-55.9337578058892	-111.5525566067461	32.85173606613115	-59.25315658458608	7.56610943860451e-21	-5.220474105147324e-21
17.53333333333333	0	0	0	0	0.93	0	0	0	0	0	0	0	0	0	0	0	0	0	0	0	0	0	0	0	0	1.110777364808466e-07	4.434012431184406e-07	-6.033350448958681e-07	1.651415663980803e-10	-6.9476236029858e-10	0	0	-63.80242086961052	-55.67559674728061	-111.7985457522698	32.78034020363928	-59.30385387458012	0	0
17.55	0	0	0	0	0.93	0	0	0	0	0	0	0	0	0	0	0	0	0	0	0	0	0	0	0	0	1.110777364808785e-07	4.434012431184195e-07	-6.033350448959574e-07	1.651415652942832e-10	-6.947623603176248e-10	0	0	-63.92835868693266	-55.44755197059656	-112.0204814743831	32.68084247157403	-59.33595288550548	0	0
17.56666666666667	2.591961559330811e-24	2.470689132371037e-15	4.055424371852168e-24	-6.715566353392102e-25	0.93	-6.512263578385152e-25	4.967799812991023e-33	5.943983645564679e-23	1.204018155033619e-30	0	-1.762969060629806e-17	4.214744988169432e-19	-1.269736805268287e-19	4.976929629342413e-16	1.934889086302471e-19	-2.027314921514102e-31	-7.986690493181191e-21	0	-1.772237887887738e-17	3.409852049554521e-19	1.609327350087282e-23	4.512551386091882e-17	3.711516809284339e-24	-1.80264486505868e-23	3.572746500649874e-24	1.110777364886872e-07	4.43401243117365e-07	-6.0333504489579e-07	1.651415640397124e-10	-6.947623602908099e-10	-1.736172581402e-17	-1.105463608311898e-16	-64.02511612069566	-55.23842716644784	-112.2251312698859	32.58431042399821	-59.40323843556448	1.290360785007545e-17	7.699920997116432e-18
17.58333333333333	0	0	0	0	0.93	0	0	0	0	0	0	0	0	0	0	0	0	0	-1.466450219935503e-40	0	0	0	0	0	0	1.110777364886872e-07	4.43401243117365e-07	-6.0333504489579e-07	1.651415640397124e-10	-6.947623602908099e-10	0	0	-64.07519603656914	-55.07316252525228	-112.4436432422998	32.44383279718382	-59.45895306372667	0	0
17.6	1.665116098444588e-26	2.037503396414035e-20	-4.877920094233044e-27	5.54217618599724e-26	0.93	6.109157758932714e-25	2.08653727141283e-33	1.595360526806297e-24	0	0	-2.873006421181535e-17	-1.511561067974982e-23	-1.321786261339077e-23	9.181835128155708e-19	8.623779106560652e-23	3.95833389205121e-31	5.26754023914289e-23	0	-2.888034190895151e-17	-5.816076943604933e-24	-3.48898974960391e-17	4.203136404548916e-19	1.665116098444588e-26	2.168233437437606e-24	2.684509978725879e-25	1.11077736488568e-07	4.434012431173776e-07	-6.033350448958003e-07	1.651415640558374e-10	-6.947623602846429e-10	2.415487133699998e-21	5.680491583374312e-21	-64.05356277657017	-54.96334088756415	-112.6945799380203	32.25802436876254	-59.56652170964136	-4.131115002437268e-21	1.918593998050776e-21
17.61666666666667	0	0	0	0	0.93	0	0	0	0	1.052357267868557e-38	3.957566349746367e-41	0	0	0	0	0	0	8.987832046312718e-40	3.671136177991986e-40	0	0	0	0	0	0	1.11077736488568e-07	4.434012431173776e-07	-6.033350448958003e-07	1.651415640558374e-10	-6.947623602846429e-10	0	0	-63.99912143831611	-54.8894925278065	-112.9476672158598	32.05374183313121	-59.71793848040855	0	0
17.63333333333333	-1.435049215622068e-27	1.100839360839831e-22	-7.457736081185548e-28	1.360256193189828e-28	0.93	-2.271298735439831e-28	1.27925024503922e-38	1.228669149717596e-25	0	3.06999751042376e-07	5.358156458515351e-09	-9.781056382914813e-19	-7.214686652238744e-25	3.893336297000963e-24	4.325208930307478e-25	-7.068539658466264e-37	6.414653470131029e-25	3.069997510530725e-07	5.358142160068933e-09	-1.236798189924342e-22	3.979515171069386e-28	-8.690641939049253e-24	-1.274029913869198e-27	1.909632420788421e-27	-9.265672100866893e-28	1.110733408361562e-07	4.434026257449554e-07	-6.033245443686941e-07	1.65141564055227e-10	-6.947623602846205e-10	6.941384873844534e-25	5.276882969219938e-23	-63.92149025169175	-54.83431888736843	-113.1609735487275	31.80920569902633	-59.74929872591263	2.113345940279089e-26	-5.694525052890117e-23
17.65	0	0	0	0	0.93	0	0	0	0	0	0	0	0	0	0	0	0	0	0	0	0	0	0	0	0	1.110733408361563e-07	4.434026257464784e-07	-6.033245443704931e-07	1.651415641925204e-10	-6.947623608943103e-10	0	0	-63.81692961812408	-54.79304267588251	-113.3249085368231	31.51592318299982	-59.6565274025351	0	0
17.66666666666667	0	0	0	0	0.93	0	0	0	0	2.461885726344688e-39	-3.210032120503051e-41	0	0	0	0	0	0	2.461885726344688e-39	-3.210032120503051e-41	0	0	0	0	0	0	1.110733408361563e-07	4.434026257464784e-07	-6.033245443704931e-07	1.651415641925204e-10	-6.947623608943103e-10	0	0	-63.72716513500345	-54.74557602794802	-113.4276301452234	31.28717734430242	-59.6997357562167	0	0
17.68333333333333	0	1.293136610756882e-34	-3.448364295351692e-34	0	0.93	0	3.25589072549614e-38	-8.418858142948453e-37	0	0	-1.031104804475018e-40	0	0	0	3.25589072549614e-38	-8.418858142948453e-37	0	0	-1.031104804475018e-40	0	0	0	0	1.293136610756882e-34	-3.448364295351692e-34	1.110733408361563e-07	4.434026257464784e-07	-6.033245443704931e-07	1.651415641925204e-10	-6.947623608943103e-10	0	1.101840330285077e-35	-63.64506960906723	-54.67695822053011	-113.4673018309078	31.13212082399714	-59.88673430032006	0	1.101840330285077e-35
17.7	0	0	0	0	0.93	0	0	0	0	0	0	0	0	0	0	0	0	0	0	0	0	0	0	0	0	1.110733408361563e-07	4.434026257464784e-07	-6.033245443704931e-07	1.651415641925204e-10	-6.947623608943103e-10	0	0	-63.59810688083259	-54.61331202750588	-113.4924987405418	30.98128568893106	-60.08035887928927	0	0
17.71666666666667	0	0	0	0	0.93	0	0	0	0	1.227569149145847e-38	1.860755192150545e-40	0	0	0	0	0	0	1.227569149145847e-38	1.860755192150545e-40	0	0	0	0	0	0	1.110733408361563e-07	4.434026257464784e-07	-6.033245443704931e-07	1.651415641925204e-10	-6.947623608943103e-10	0	0	-63.59177908858939	-54.52779752748478	-113.5272172729927	30.86103400669907	-60.19495278082488	0	0
17.73333333333333	-3.093960361578616e-24	-2.770825914048809e-18	5.573284716509996e-25	6.101173025601481e-20	0.93	-1.88079096131566e-37	-5.28030782725727e-34	-4.115707899250687e-24	-2.792189548098857e-24	0	-4.961194386817259e-17	7.380016131271911e-18	2.319312783895276e-20	1.293957293859903e-19	1.047462816796341e-17	9.110104690233775e-16	-4.357875944929094e-15	0	-4.961193754752693e-17	-3.220170164603948e-18	-1.713872576424602e-20	-2.239929328908349e-19	8.103563341337102e-18	4.34777306240176e-15	-1.518101052804945e-16	1.110733408361563e-07	4.434026257511536e-07	-6.033245443689844e-07	1.651415624772809e-10	-6.947623604969018e-10	-1.746808847476189e-20	8.241235094734945e-19	-63.61886764135549	-54.44924347627926	-113.6014245422514	30.73463953315206	-60.18850528152694	3.618979743073417e-19	1.962818097482758e-18
17.75	0	0	0	0	0.93	0	0	0	0	0	0	0	0	0	0	0	0	0	0	0	0	0	0	0	0	1.110733408361562e-07	4.434026257512038e-07	-6.033245443689012e-07	1.651415625763578e-10	-6.94762360378472e-10	0	0	-63.64843500895318	-54.38801477954631	-113.7312399462357	30.59286178546688	-60.09252617649801	0	0
